<svg xmlns="http://www.w3.org/2000/svg" width="800" height="600" viewBox="0 0 800 600">
  <!-- Background Grid -->
  <defs>
    <pattern id="grid" width="40" height="40" patternUnits="userSpaceOnUse">
      <path d="M 40 0 L 0 0 0 40" fill="none" stroke="#0ff" stroke-width="0.5" stroke-opacity="0.2"/>
    </pattern>
    <linearGradient id="cyberGradient" x1="0%" y1="0%" x2="100%" y2="100%">
      <stop offset="0%" stop-color="#0c1e3e"/>
      <stop offset="100%" stop-color="#16213e"/>
    </linearGradient>
    <filter id="glow" x="-20%" y="-20%" width="140%" height="140%">
      <feGaussianBlur stdDeviation="5" result="blur"/>
      <feComposite in="SourceGraphic" in2="blur" operator="over"/>
    </filter>
    <radialGradient id="ballGradient" cx="50%" cy="50%" r="50%" fx="25%" fy="25%">
      <stop offset="0%" stop-color="#00f0ff"/>
      <stop offset="80%" stop-color="#4e6ef2"/>
      <stop offset="100%" stop-color="#7a5af8"/>
    </radialGradient>
  </defs>
  
  <!-- Main Background -->
  <rect width="800" height="600" fill="url(#cyberGradient)"/>
  <rect width="800" height="600" fill="url(#grid)"/>
  
  <!-- Tesseract Group -->
  <g transform="translate(400, 300)" filter="url(#glow)">
    <!-- Outer Cube -->
    <g id="outerCube" stroke="#0ff" stroke-width="2" fill="none" opacity="0.8">
      <animateTransform attributeName="transform" type="rotate" from="0 0 0" to="360 0 0" dur="20s" repeatCount="indefinite"/>
      <!-- Front face -->
      <path d="M-100,-100 L100,-100 L100,100 L-100,100 Z" />
      <!-- Back face -->
      <path d="M-70,-70 L70,-70 L70,70 L-70,70 Z" />
      <!-- Connecting lines -->
      <path d="M-100,-100 L-70,-70 M100,-100 L70,-70 M100,100 L70,70 M-100,100 L-70,70" />
    </g>
    
    <!-- Inner Cube -->
    <g id="innerCube" stroke="#0ff" stroke-width="2" fill="none" opacity="0.6">
      <animateTransform attributeName="transform" type="rotate" from="360 0 0" to="0 0 0" dur="15s" repeatCount="indefinite"/>
      <!-- Front face -->
      <path d="M-50,-50 L50,-50 L50,50 L-50,50 Z" />
      <!-- Back face -->
      <path d="M-30,-30 L30,-30 L30,30 L-30,30 Z" />
      <!-- Connecting lines -->
      <path d="M-50,-50 L-30,-30 M50,-50 L30,-30 M50,50 L30,30 M-50,50 L-30,30" />
    </g>
    
    <!-- Bouncing Ball -->
    <circle id="ball" cx="0" cy="0" r="20" fill="url(#ballGradient)" opacity="0.9">
      <animate attributeName="cy" values="-40;40;-40" dur="2s" repeatCount="indefinite" />
      <animate attributeName="r" values="20;25;20" dur="2s" repeatCount="indefinite" />
      <animate attributeName="opacity" values="0.9;1;0.9" dur="2s" repeatCount="indefinite" />
    </circle>
    
    <!-- Energy Trails -->
    <g opacity="0.5">
      <path d="M0,-40 C30,-30 30,30 0,40" stroke="#0ff" stroke-width="2" fill="none">
        <animate attributeName="d" values="M0,-40 C30,-30 30,30 0,40;M0,-40 C-30,-30 -30,30 0,40;M0,-40 C30,-30 30,30 0,40" dur="4s" repeatCount="indefinite" />
        <animate attributeName="opacity" values="0.5;0.1;0.5" dur="2s" repeatCount="indefinite" />
      </path>
      <path d="M0,-40 C-30,-30 -30,30 0,40" stroke="#0ff" stroke-width="2" fill="none">
        <animate attributeName="d" values="M0,-40 C-30,-30 -30,30 0,40;M0,-40 C30,-30 30,30 0,40;M0,-40 C-30,-30 -30,30 0,40" dur="4s" repeatCount="indefinite" />
        <animate attributeName="opacity" values="0.5;0.1;0.5" dur="2s" repeatCount="indefinite" />
      </path>
    </g>
    
    <!-- Pulse Rings -->
    <circle cx="0" cy="0" r="60" stroke="#0ff" stroke-width="2" fill="none" opacity="0.3">
      <animate attributeName="r" values="60;90;60" dur="4s" repeatCount="indefinite" />
      <animate attributeName="opacity" values="0.3;0;0.3" dur="4s" repeatCount="indefinite" />
    </circle>
    <circle cx="0" cy="0" r="80" stroke="#0ff" stroke-width="1" fill="none" opacity="0.2">
      <animate attributeName="r" values="80;120;80" dur="4s" repeatCount="indefinite" begin="1s" />
      <animate attributeName="opacity" values="0.2;0;0.2" dur="4s" repeatCount="indefinite" begin="1s" />
    </circle>
    
    <!-- Rotating Grid Lines -->
    <g opacity="0.15">
      <animateTransform attributeName="transform" type="rotate" from="0 0 0" to="360 0 0" dur="30s" repeatCount="indefinite"/>
      <path d="M-150,0 L150,0" stroke="#0ff" stroke-width="1" />
      <path d="M0,-150 L0,150" stroke="#0ff" stroke-width="1" />
      <path d="M-106,-106 L106,106" stroke="#0ff" stroke-width="1" />
      <path d="M-106,106 L106,-106" stroke="#0ff" stroke-width="1" />
    </g>
  </g>
  
  <!-- AI Text -->
  <text x="400" y="480" font-family="'Share Tech Mono', monospace" font-size="40" fill="#0ff" text-anchor="middle" filter="url(#glow)">
    AI COLLABORATION
    <animate attributeName="opacity" values="0.7;1;0.7" dur="2s" repeatCount="indefinite"/>
  </text>
</svg> 